<svg width="22" height="20" viewBox="0 0 22 20" fill="none" xmlns="http://www.w3.org/2000/svg">
<g id="Group 1">
<path id="Ellipse 1" d="M19.7778 9.99999C19.7778 14.9919 15.8268 19 11 19C6.17324 19 2.22223 14.9919 2.22223 9.99999C2.22223 5.00813 6.17324 1 11 1C15.8268 1 19.7778 5.00813 19.7778 9.99999Z" stroke="white" stroke-width="2"/>
<path id="Subtract" fill-rule="evenodd" clip-rule="evenodd" d="M1.61229 12.2898C0.186279 14.3912 -0.375156 16.2844 0.258513 17.4958C1.56185 19.9874 7.42755 18.6513 13.3599 14.5115C19.2923 10.3717 23.0448 4.99589 21.7415 2.50427C20.9836 1.05535 18.6828 0.900825 15.7233 1.83932C16.048 2.43471 16.2665 3.07047 16.3843 3.72797C16.7273 3.62067 17.0569 3.53121 17.3709 3.45968C18.4056 3.22398 19.1444 3.21255 19.5974 3.30055C19.8125 3.34235 19.9169 3.39759 19.9538 3.42171C19.9623 3.42722 19.9676 3.43133 19.9705 3.43381C19.9728 3.43872 19.9776 3.45058 19.9828 3.47224C19.9897 3.50062 19.9977 3.54818 19.9996 3.61931C20.0035 3.766 19.9808 3.99071 19.8921 4.3026C19.7116 4.93784 19.3051 5.76948 18.6241 6.74504C17.2681 8.68768 15.0297 10.9074 12.2154 12.8713C9.39463 14.8397 6.68083 16.073 4.62914 16.5403C3.59436 16.776 2.85562 16.7875 2.40261 16.6995C2.18745 16.6577 2.08311 16.6024 2.04618 16.5783C2.03775 16.5728 2.03243 16.5687 2.02947 16.5662C2.0272 16.5613 2.02237 16.5494 2.01716 16.5278C2.01033 16.4994 2.00233 16.4518 2.00042 16.3807C1.99649 16.234 2.01921 16.0093 2.10785 15.6974C2.27935 15.094 2.65471 14.3134 3.27553 13.4006C2.66485 13.1151 2.10401 12.7442 1.61229 12.2898Z" fill="white"/>
</g>
</svg>
